<svg width="507" height="726" viewBox="0 0 507 726" fill="none" xmlns="http://www.w3.org/2000/svg">
<g filter="url(#filter0_f_145_59)">
<ellipse cx="254.259" cy="689.378" rx="114.492" ry="24.4928" fill="black" fill-opacity="0.12"/>
</g>
<path d="M307.608 575.57C308.649 605.367 267.748 637.481 251.259 638.057C234.771 638.632 189.73 609.519 188.689 579.722C187.649 549.926 214.379 539.313 247.77 538.147C281.16 536.981 306.568 545.774 307.608 575.57Z" fill="#A0DDE8" stroke="#095679" stroke-width="6"/>
<g filter="url(#filter1_f_145_59)">
<path d="M191.705 580.117C193.719 609.672 237.734 637.529 251.19 636.059C264.646 634.588 283.846 618.532 295.077 603.517C273.383 617.74 264.388 622.26 245.513 616.751C218.042 605.529 210.013 596.27 191.705 580.117Z" fill="#51A1B8"/>
</g>
<g filter="url(#filter2_f_145_59)">
<path d="M247.341 540.181C242.344 540.355 221.358 541.088 202.722 551.8C237.245 547.206 260.964 548.189 294.727 550.512C279.053 540.088 252.337 540.007 247.341 540.181Z" fill="#59A6B1"/>
</g>
<path d="M277.837 539.598C277.837 539.598 281.155 562.99 276.223 593.672C271.292 624.353 251.259 638.057 251.259 638.057" stroke="#095679" stroke-width="3"/>
<g filter="url(#filter3_f_145_59)">
<path d="M303.936 570.697C303.377 559.966 296.515 552.334 289.126 547.707C306.4 569.453 294.251 598.38 275.272 623.714C288.798 612.707 307.025 590.409 303.936 570.697Z" fill="#C5F5F5"/>
</g>
<path d="M339.632 440.216C351.569 458.304 390.374 453.675 426.306 429.876C462.238 406.077 477.306 365.18 469.754 354.032C462.202 342.884 424.763 340.996 382.994 362.407C341.225 383.819 327.696 422.127 339.632 440.216Z" fill="#89C4D6" stroke="#095679" stroke-width="6"/>
<g filter="url(#filter4_f_145_59)">
<path d="M368.155 375.151C352.094 387.746 346.908 396.279 340.965 411.448C340.965 411.448 346.842 397.026 368.215 382.163C389.588 367.301 404.057 363.826 430.004 357.594C455.95 351.363 456.871 351.386 465.47 353.786C457.093 349.776 451.719 347.843 429.94 350.081C407.25 354.862 393.503 357.404 368.155 375.151Z" fill="#BAEDF0"/>
</g>
<g filter="url(#filter5_f_145_59)">
<path d="M323.976 426.374C309.977 426.374 335.392 404.342 323.976 408.88C330.788 386.781 381.049 364.611 404.47 355.395C439.968 355.395 364.473 446.368 414.469 434.872C335.475 472.361 357.474 419.876 323.976 426.374Z" fill="#4F9DB6"/>
</g>
<path d="M468.856 355.213C468.856 355.213 435.354 359.049 396.112 383.275C356.871 407.501 339.359 435.16 339.359 435.16" stroke="#095679" stroke-width="3"/>
<path d="M5.11696 176.81C7.66001 79.6412 88.4925 2.931 185.661 5.47292L330.575 9.26386C427.744 11.8058 504.454 92.6373 501.91 189.806L500.998 224.691C498.96 302.536 434.202 363.991 356.357 361.955L141.467 356.333C63.6212 354.297 2.16665 289.54 4.20398 211.694L5.11696 176.81Z" fill="url(#paint0_linear_145_59)" stroke="#095679" stroke-width="6"/>
<path d="M5.11696 176.81C7.66001 79.6412 88.4925 2.931 185.661 5.47292L330.575 9.26386C427.744 11.8058 504.454 92.6373 501.91 189.806L501.521 204.703C499.483 282.549 434.725 344.004 356.88 341.968L141.99 336.346C64.1443 334.31 2.68975 269.553 4.72708 191.707L5.11696 176.81Z" fill="url(#paint1_linear_145_59)" stroke="#095679" stroke-width="3"/>
<path fill-rule="evenodd" clip-rule="evenodd" d="M154.222 42.1182C91.2641 41.5701 39.782 92.1634 39.2337 155.121L38.9209 191.042C38.3726 254 88.9658 305.482 151.924 306.03L156.269 306.068C160.66 282.58 201.592 264.473 251.27 264.906C300.948 265.338 341.559 284.155 345.54 307.716L346.885 307.727C409.843 308.275 461.326 257.682 461.874 194.724L462.187 158.803C462.735 95.8451 412.142 44.3633 349.184 43.8152L154.222 42.1182Z" fill="#0F3035"/>
<path d="M39.2337 155.121L37.2338 155.104L39.2337 155.121ZM154.222 42.1182L154.205 44.1181L154.222 42.1182ZM38.9209 191.042L40.9208 191.06L38.9209 191.042ZM156.269 306.068L156.252 308.068L157.927 308.083L158.235 306.436L156.269 306.068ZM345.54 307.716L343.568 308.049L343.847 309.701L345.522 309.716L345.54 307.716ZM349.184 43.8152L349.201 41.8153L349.184 43.8152ZM41.2336 155.139C41.7723 93.2853 92.3512 43.5797 154.205 44.1181L154.24 40.1182C90.177 39.5606 37.7917 91.0414 37.2338 155.104L41.2336 155.139ZM40.9208 191.06L41.2336 155.139L37.2338 155.104L36.921 191.025L40.9208 191.06ZM151.941 304.03C90.0877 303.492 40.3822 252.913 40.9208 191.06L36.921 191.025C36.3631 255.087 87.8438 307.473 151.906 308.03L151.941 304.03ZM156.287 304.068L151.941 304.03L151.906 308.03L156.252 308.068L156.287 304.068ZM158.235 306.436C160.243 295.695 170.778 285.679 187.586 278.35C204.274 271.074 226.639 266.691 251.253 266.906L251.288 262.906C226.222 262.688 203.283 267.143 185.987 274.684C168.813 282.172 156.686 292.954 154.303 305.701L158.235 306.436ZM251.253 266.906C275.866 267.12 298.152 271.891 314.71 279.457C331.389 287.077 341.747 297.275 343.568 308.049L347.512 307.382C345.351 294.596 333.414 283.605 316.373 275.819C299.211 267.978 276.353 263.124 251.288 262.906L251.253 266.906ZM346.903 305.727L345.557 305.716L345.522 309.716L346.868 309.727L346.903 305.727ZM459.874 194.707C459.335 256.56 408.756 306.266 346.903 305.727L346.868 309.727C410.931 310.285 463.316 258.804 463.874 194.741L459.874 194.707ZM460.187 158.786L459.874 194.707L463.874 194.741L464.187 158.821L460.187 158.786ZM349.166 45.8152C411.02 46.3536 460.725 96.9323 460.187 158.786L464.187 158.821C464.744 94.758 413.264 42.373 349.201 41.8153L349.166 45.8152ZM154.205 44.1181L349.166 45.8152L349.201 41.8153L154.24 40.1182L154.205 44.1181Z" fill="#095679"/>
<g filter="url(#filter6_f_145_59)">
<path d="M330.527 310.689C330.051 328.903 294.386 327.245 251.602 326.125C208.818 325.006 171.616 324.759 172.093 306.545C172.57 288.331 210.256 270.041 253.041 271.161C295.825 272.28 331.004 292.476 330.527 310.689Z" fill="#1FD0BB"/>
</g>
<path d="M143.231 173.871C165.589 174.456 184.188 156.809 184.773 134.456C185.358 112.102 167.708 93.5074 145.349 92.9225C122.991 92.3376 104.392 109.984 103.807 132.338C103.222 154.691 120.873 173.286 143.231 173.871Z" fill="#1FD0BB" stroke="#696969"/>
<rect x="-0.486748" y="-0.512904" width="82.994" height="85.9749" rx="10.5" transform="matrix(0.999658 0.0261509 -0.0261625 0.999658 210.752 154.149)" fill="#6E3232" stroke="#696969"/>
<rect x="-0.486748" y="-0.512904" width="94.9931" height="43.9873" rx="10.5" transform="matrix(0.999658 0.0261509 -0.0261625 0.999658 96.067 179.15)" fill="#4F472E" stroke="#696969"/>
<rect x="-0.486748" y="-0.512904" width="94.9931" height="43.9873" rx="10.5" transform="matrix(0.999658 0.0261509 -0.0261625 0.999658 315.316 171.885)" fill="#177B70" stroke="#696969"/>
<rect x="-0.486748" y="-0.512904" width="94.9931" height="18.9947" rx="9.49735" transform="matrix(0.999658 0.0261509 -0.0261625 0.999658 315.97 146.901)" fill="#452C3B" stroke="#696969"/>
<rect x="-0.486748" y="-0.512904" width="94.9931" height="21.9938" rx="10.5" transform="matrix(0.999658 0.0261509 -0.0261625 0.999658 316.702 118.919)" fill="#154D69" stroke="#696969"/>
<rect x="-0.486748" y="-0.512904" width="94.9931" height="32.9906" rx="10.5" transform="matrix(0.999658 0.0261509 -0.0261625 0.999658 313.009 221.827)" fill="#5C4133" stroke="#696969"/>
<rect x="-0.486748" y="-0.512904" width="94.9931" height="18.9947" rx="9.49735" transform="matrix(0.999658 0.0261509 -0.0261625 0.999658 94.733 230.118)" fill="#095369" stroke="#696969"/>
<path d="M458.62 143.12C453.724 119.991 441.934 102.708 437.843 97.1883C444.024 109.567 442.502 175.624 435.008 204.505C427.514 233.385 420.147 242.44 403.438 264.182C391.101 280.236 367.459 301.243 362.921 302.624C386.161 299.338 398.574 293.433 420.065 278.618C430.654 269.459 436.607 264.171 447.864 248.343C455.461 236.599 459.056 229.343 461.314 212.193C461.768 210.418 463.517 166.249 458.62 143.12Z" fill="#9DDBE9" fill-opacity="0.28"/>
<path d="M41.4087 166.034L40.5018 200.685C40.5018 200.685 38.5607 236.636 75.7079 269.609C75.7079 269.609 72.2036 231.516 95.1361 196.114C117.968 160.867 158.577 128.356 170.023 119.193L170.172 119.073C181.41 110.075 243.319 75.9846 269.583 66.1711C295.847 56.3577 353.689 43.8702 353.689 43.8702L178.098 37.5707C104.742 34.9391 43.3291 92.6566 41.4087 166.034Z" fill="#9DDBE9" fill-opacity="0.28"/>
<path d="M39.8408 343.881C30.3074 357.668 43.9303 397.788 79.3915 422.267C114.853 446.746 146.225 456.375 160.516 435.705C174.808 415.036 166.922 387.991 131.461 363.512C95.9998 339.033 49.3741 330.093 39.8408 343.881Z" fill="#89C4D6"/>
<path d="M39.8408 343.881C30.3074 357.668 43.9303 397.788 79.3915 422.267C114.853 446.746 146.225 456.375 160.516 435.705M39.8408 343.881C49.3741 330.093 95.9998 339.033 131.461 363.512C166.922 387.991 174.808 415.036 160.516 435.705M39.8408 343.881C39.8408 343.881 85.8654 349.379 116.382 375.871C146.898 402.363 160.516 435.705 160.516 435.705" stroke="#095679" stroke-width="6"/>
<g filter="url(#filter7_f_145_59)">
<path d="M66.8556 407.831C56.35 399.833 36.8396 369.842 40.3415 349.848C41.3419 387.836 107.878 434.323 160.406 438.822C132.391 456.316 83.8646 425.325 66.8556 407.831Z" fill="#C5F5F5"/>
</g>
<g filter="url(#filter8_f_145_59)">
<path d="M115.381 357.345C99.0209 353.67 91.4077 350.279 78.8614 343.349C93.8731 363.817 107.696 371.264 110.378 394.334C110.846 410.174 99.2409 420.879 95.3702 429.324C113.417 439.302 127.923 445.836 144.897 445.819C141.595 435.41 135.319 427.128 132.39 409.83C130.444 388.988 130.242 378.848 135.392 370.342C128.795 364.552 124.403 361.716 115.381 357.345Z" fill="#4F9DB6"/>
</g>
<path d="M41.3427 342.85C85.3248 351.98 106.302 363.13 135.893 395.834" stroke="#095679" stroke-width="6"/>
<path d="M132.615 395.817C131.217 378.034 145.844 364.203 163.681 364.203H345.766C361.225 364.203 374.684 374.742 375.231 390.191C375.809 406.506 374.146 428.826 365.007 452.177C347.008 498.163 319.01 525.155 319.01 525.155C319.01 525.155 296.512 505.661 253.515 506.161C210.518 506.661 185.02 525.155 185.02 525.155C185.02 525.155 157.022 498.163 143.023 452.177C136.701 431.408 133.846 411.455 132.615 395.817Z" fill="#9DDBE9" stroke="#095679" stroke-width="6"/>
<path d="M300.512 364.203V407.69C300.512 407.69 313.511 415.188 313.511 433.182C313.511 451.177 295.012 459.675 295.012 459.675L284.513 502.162" stroke="#095679" stroke-width="3"/>
<path d="M163.022 495.164C163.022 495.164 179.02 479.169 226.517 473.67C274.013 468.172 291.012 479.169 291.012 479.169" stroke="#095679" stroke-width="3"/>
<g filter="url(#filter9_f_145_59)">
<path d="M365.507 374.7C359.927 371.042 357.23 368.647 349.508 366.702C350.826 391.84 349.081 401.222 344.508 415.188C329.54 463.109 319.2 480.273 300.012 507.161C307.641 511.376 311.371 514.592 319.01 520.657C326.449 512.77 330.384 507.83 337.009 498.163L337.407 497.558C343.645 488.078 347.263 482.58 353.008 471.171C364.941 446.609 368.523 434.55 371.006 415.188C371.735 407.375 372.449 406.361 372.006 390.195C371.203 385.009 371.309 382.378 365.507 374.7Z" fill="#C5F5F5"/>
</g>
<g filter="url(#filter10_f_145_59)">
<path d="M361.507 372.2C361.507 382.663 311.378 403.191 252.633 403.191C193.887 403.191 139.023 390.721 139.023 380.258C142.439 361.313 193.887 365.302 252.633 365.302C311.378 365.302 344.508 359.704 361.507 372.2Z" fill="#59A6B1"/>
</g>
<defs>
<filter id="filter0_f_145_59" x="127.768" y="652.885" width="252.983" height="72.9856" filterUnits="userSpaceOnUse" color-interpolation-filters="sRGB">
<feFlood flood-opacity="0" result="BackgroundImageFix"/>
<feBlend mode="normal" in="SourceGraphic" in2="BackgroundImageFix" result="shape"/>
<feGaussianBlur stdDeviation="6" result="effect1_foregroundBlur_145_59"/>
</filter>
<filter id="filter1_f_145_59" x="186.705" y="575.117" width="113.372" height="65.9972" filterUnits="userSpaceOnUse" color-interpolation-filters="sRGB">
<feFlood flood-opacity="0" result="BackgroundImageFix"/>
<feBlend mode="normal" in="SourceGraphic" in2="BackgroundImageFix" result="shape"/>
<feGaussianBlur stdDeviation="2.5" result="effect1_foregroundBlur_145_59"/>
</filter>
<filter id="filter2_f_145_59" x="198.722" y="536.146" width="100.004" height="19.6539" filterUnits="userSpaceOnUse" color-interpolation-filters="sRGB">
<feFlood flood-opacity="0" result="BackgroundImageFix"/>
<feBlend mode="normal" in="SourceGraphic" in2="BackgroundImageFix" result="shape"/>
<feGaussianBlur stdDeviation="2" result="effect1_foregroundBlur_145_59"/>
</filter>
<filter id="filter3_f_145_59" x="272.272" y="544.707" width="35.0109" height="82.0074" filterUnits="userSpaceOnUse" color-interpolation-filters="sRGB">
<feFlood flood-opacity="0" result="BackgroundImageFix"/>
<feBlend mode="normal" in="SourceGraphic" in2="BackgroundImageFix" result="shape"/>
<feGaussianBlur stdDeviation="1.5" result="effect1_foregroundBlur_145_59"/>
</filter>
<filter id="filter4_f_145_59" x="335.965" y="344.135" width="134.505" height="72.3127" filterUnits="userSpaceOnUse" color-interpolation-filters="sRGB">
<feFlood flood-opacity="0" result="BackgroundImageFix"/>
<feBlend mode="normal" in="SourceGraphic" in2="BackgroundImageFix" result="shape"/>
<feGaussianBlur stdDeviation="2.5" result="effect1_foregroundBlur_145_59"/>
</filter>
<filter id="filter5_f_145_59" x="314.644" y="350.395" width="104.826" height="103.098" filterUnits="userSpaceOnUse" color-interpolation-filters="sRGB">
<feFlood flood-opacity="0" result="BackgroundImageFix"/>
<feBlend mode="normal" in="SourceGraphic" in2="BackgroundImageFix" result="shape"/>
<feGaussianBlur stdDeviation="2.5" result="effect1_foregroundBlur_145_59"/>
</filter>
<filter id="filter6_f_145_59" x="164.089" y="263.112" width="174.443" height="71.6375" filterUnits="userSpaceOnUse" color-interpolation-filters="sRGB">
<feFlood flood-opacity="0" result="BackgroundImageFix"/>
<feBlend mode="normal" in="SourceGraphic" in2="BackgroundImageFix" result="shape"/>
<feGaussianBlur stdDeviation="4" result="effect1_foregroundBlur_145_59"/>
</filter>
<filter id="filter7_f_145_59" x="31.9264" y="341.848" width="136.479" height="110.155" filterUnits="userSpaceOnUse" color-interpolation-filters="sRGB">
<feFlood flood-opacity="0" result="BackgroundImageFix"/>
<feBlend mode="normal" in="SourceGraphic" in2="BackgroundImageFix" result="shape"/>
<feGaussianBlur stdDeviation="4" result="effect1_foregroundBlur_145_59"/>
</filter>
<filter id="filter8_f_145_59" x="70.8613" y="335.349" width="82.0354" height="118.47" filterUnits="userSpaceOnUse" color-interpolation-filters="sRGB">
<feFlood flood-opacity="0" result="BackgroundImageFix"/>
<feBlend mode="normal" in="SourceGraphic" in2="BackgroundImageFix" result="shape"/>
<feGaussianBlur stdDeviation="4" result="effect1_foregroundBlur_145_59"/>
</filter>
<filter id="filter9_f_145_59" x="292.012" y="358.702" width="88.1311" height="169.955" filterUnits="userSpaceOnUse" color-interpolation-filters="sRGB">
<feFlood flood-opacity="0" result="BackgroundImageFix"/>
<feBlend mode="normal" in="SourceGraphic" in2="BackgroundImageFix" result="shape"/>
<feGaussianBlur stdDeviation="4" result="effect1_foregroundBlur_145_59"/>
</filter>
<filter id="filter10_f_145_59" x="134.023" y="359.052" width="232.484" height="49.1395" filterUnits="userSpaceOnUse" color-interpolation-filters="sRGB">
<feFlood flood-opacity="0" result="BackgroundImageFix"/>
<feBlend mode="normal" in="SourceGraphic" in2="BackgroundImageFix" result="shape"/>
<feGaussianBlur stdDeviation="2.5" result="effect1_foregroundBlur_145_59"/>
</filter>
<linearGradient id="paint0_linear_145_59" x1="442.064" y1="336.196" x2="63.3853" y2="54.6948" gradientUnits="userSpaceOnUse">
<stop stop-color="#52A7C0"/>
<stop offset="1" stop-color="#0E5064"/>
</linearGradient>
<linearGradient id="paint1_linear_145_59" x1="452.91" y1="303.978" x2="56.0504" y2="48.003" gradientUnits="userSpaceOnUse">
<stop offset="0.473958" stop-color="#83C1CE"/>
<stop offset="1" stop-color="#90C8D3"/>
</linearGradient>
</defs>
</svg>
