<svg width="503" height="723" viewBox="0 0 503 723" fill="none" xmlns="http://www.w3.org/2000/svg">
<g filter="url(#filter0_f_101_98)">
<ellipse cx="248" cy="688.5" rx="76" ry="24.5" fill="black" fill-opacity="0.14"/>
</g>
<path d="M307 570.5C307 600.323 265 631 248.5 631C232 631 188 600.323 188 570.5C188 540.677 215.087 531 248.5 531C281.913 531 307 540.677 307 570.5Z" fill="#A0DDE8" stroke="#095679" stroke-width="6"/>
<g filter="url(#filter1_f_101_98)">
<path d="M191 571C191.981 600.616 235 630 248.5 629C262 628 281.751 612.618 293.5 598C271.321 611.462 262.173 615.667 243.5 609.5C216.436 597.323 208.734 587.786 191 571Z" fill="#51A1B8"/>
</g>
<g filter="url(#filter2_f_101_98)">
<path d="M248 533.018C243 533.018 222 533.018 203 543.077C237.664 539.688 261.336 541.5 295 545C279.699 534.032 253 533.018 248 533.018Z" fill="#59A6B1"/>
</g>
<path d="M278.5 533.5C278.5 533.5 281 557 275 587.5C269 618 248.5 631 248.5 631" stroke="#095679" stroke-width="3"/>
<g filter="url(#filter3_f_101_98)">
<path d="M303.5 565.5C303.316 554.753 296.724 546.884 289.5 542C306.006 564.343 292.854 592.836 273 617.5C286.903 606.969 305.899 585.313 303.5 565.5Z" fill="#C5F5F5"/>
</g>
<path d="M156.703 380.423C174.86 392.206 170.569 431.052 147.118 467.188C123.668 503.324 82.9732 518.74 71.7816 511.283C60.5899 503.825 58.3868 466.4 79.4053 424.448C100.424 382.495 138.547 368.64 156.703 380.423Z" fill="#89C4D6" stroke="#095679" stroke-width="6"/>
<g filter="url(#filter4_f_101_98)">
<path d="M92.0001 409.5C104.436 393.331 112.909 388.073 128 382C128 382 113.654 388 99.0001 409.5C84.3462 431 81.0001 445.5 75.0001 471.5C69.0001 497.5 69.0308 498.421 71.5001 507C67.4257 498.657 65.4509 493.299 67.5001 471.5C72.0794 448.768 74.5001 435 92.0001 409.5Z" fill="#BAEDF0"/>
</g>
<g filter="url(#filter5_f_101_98)">
<path d="M141.5 448C138.493 444.875 126.568 390.455 131 379C109 386 91 405 82 428.5C94.9504 443.029 101.95 459.754 108.5 483C124.693 483.01 141.65 457.851 141.5 448Z" fill="#4F9DB6"/>
</g>
<path d="M72.953 510.374C72.953 510.374 76.4971 476.838 100.346 437.389C124.195 397.94 151.655 380.192 151.655 380.192" stroke="#095679" stroke-width="3"/>
<path d="M3 179C3 81.7979 81.7979 3 179 3H324C421.202 3 500 81.7979 500 179V214C500 291.872 436.872 355 359 355H144C66.1278 355 3 291.872 3 214V179Z" fill="url(#paint0_linear_101_98)" stroke="#095679" stroke-width="6"/>
<path d="M3 179C3 81.7979 81.7979 3 179 3H324C421.202 3 500 81.7979 500 179V194C500 271.872 436.872 335 359 335H144C66.1278 335 3 271.872 3 194V179Z" fill="url(#paint1_linear_101_98)" stroke="#095679" stroke-width="3"/>
<path d="M39.0001 166C39.0001 93.0984 98.0985 34 171 34H329.488C401.013 34 459.526 90.9662 461.441 162.466L462.5 202C462.5 202 462 236 423.5 270C385 304 342 298 342 298C342 298 340.5 253.5 249 255C157.5 256.5 154 298 154 298C154 298 114 302 76.0001 270C38.0001 238 39.0001 202 39.0001 202V166Z" fill="#0F3035" stroke="#095679" stroke-width="4"/>
<g filter="url(#filter6_f_101_98)">
<path d="M326.792 302.5C326.792 320.725 291.094 320 248.292 320C205.489 320 168.292 320.725 168.292 302.5C168.292 284.275 205.489 265 248.292 265C291.094 265 326.792 284.275 326.792 302.5Z" fill="#1FD0BB"/>
</g>
<circle cx="141" cy="132" r="40.5" fill="#1FD0BB" stroke="#696969"/>
<rect x="207.5" y="150.5" width="83" height="86" rx="10.5" fill="#6E3232" stroke="#696969"/>
<rect x="93.5" y="178.5" width="95" height="44" rx="10.5" fill="#4F472E" stroke="#696969"/>
<rect x="312.5" y="165.5" width="95" height="44" rx="10.5" fill="#177B70" stroke="#696969"/>
<rect x="312.5" y="140.5" width="95" height="19" rx="9.5" fill="#452C3B" stroke="#696969"/>
<rect x="312.5" y="112.5" width="95" height="22" rx="10.5" fill="#154D69" stroke="#696969"/>
<rect x="311.5" y="215.5" width="95" height="33" rx="10.5" fill="#5C4133" stroke="#696969"/>
<rect x="93.5" y="229.5" width="95" height="19" rx="9.5" fill="#095369" stroke="#696969"/>
<path d="M455.5 133.5C450 110.5 437.761 93.5271 433.527 88.1143C440.03 100.331 440.237 166.425 433.5 195.5C426.764 224.575 419.635 233.822 403.5 256C391.586 272.376 368.5 294 364 295.5C387.147 291.606 399.403 285.377 420.5 270C430.847 260.565 436.66 255.122 447.5 239C454.788 227.058 458.192 219.708 460 202.5C460.407 200.713 461 156.5 455.5 133.5Z" fill="#9DDBE9" fill-opacity="0.28"/>
<path d="M39.0001 167.288V202C39.0001 202 38.0001 238 76.0001 270C76.0001 270 71.5 232 93.5 196C115.404 160.157 155.151 126.586 166.354 117.123L166.5 117C177.5 107.709 238.5 72 264.5 61.5C290.5 51 348 37 348 37L172.282 35.294C98.8824 34.5814 39.0001 93.8852 39.0001 167.288Z" fill="#9DDBE9" fill-opacity="0.28"/>
<path d="M468 345.531C477.528 359.323 463.913 399.455 428.47 423.941C393.028 448.427 361.673 458.059 347.389 437.383C333.105 416.708 340.986 389.655 376.429 365.169C411.871 340.683 458.472 331.74 468 345.531Z" fill="#89C4D6"/>
<path d="M468 345.531C477.528 359.323 463.913 399.455 428.47 423.941C393.028 448.427 361.673 458.059 347.389 437.383M468 345.531C458.472 331.74 411.871 340.683 376.429 365.169C340.986 389.655 333.105 416.708 347.389 437.383M468 345.531C468 345.531 422 351.031 391.5 377.531C361 404.031 347.389 437.383 347.389 437.383" stroke="#095679" stroke-width="6"/>
<g filter="url(#filter7_f_101_98)">
<path d="M441 409.5C451.5 401.5 471 371.5 467.5 351.5C466.5 389.5 400 436 347.5 440.5C375.5 458 424 427 441 409.5Z" fill="#C5F5F5"/>
</g>
<g filter="url(#filter8_f_101_98)">
<path d="M392.5 359C408.851 355.323 416.46 351.931 429 345C413.996 365.473 400.18 372.923 397.5 396C397.032 411.844 408.631 422.552 412.5 431C394.463 440.981 379.964 447.517 363 447.5C366.3 437.088 372.573 428.804 375.5 411.5C377.445 390.652 377.647 380.509 372.5 372C379.093 366.209 383.483 363.372 392.5 359Z" fill="#4F9DB6"/>
</g>
<path d="M466.5 344.5C422.541 353.632 401.576 364.786 372 397.5" stroke="#095679" stroke-width="6"/>
<path d="M130.591 391.614C129.193 373.832 143.82 360 161.658 360H343.758C359.218 360 372.677 370.54 373.225 385.99C373.803 402.31 372.141 424.639 363 448C345 494 317 521 317 521C317 521 294.5 501.5 251.5 502C208.5 502.5 183 521 183 521C183 521 155 494 141 448C134.676 427.221 131.821 407.258 130.591 391.614Z" fill="#9DDBE9" stroke="#095679" stroke-width="6"/>
<g filter="url(#filter9_f_101_98)">
<path d="M359.5 368C359.5 378.466 309.368 399 250.618 399C191.868 399 137 386.526 137 376.06C140.416 357.11 191.868 361.099 250.618 361.099C309.368 361.099 342.5 355.5 359.5 368Z" fill="#59A6B1"/>
</g>
<path d="M298.5 360V403.5C298.5 403.5 311.5 411 311.5 429C311.5 447 293 455.5 293 455.5L282.5 498" stroke="#095679" stroke-width="3"/>
<path d="M161 491C161 491 177 475 224.5 469.5C272 464 289 475 289 475" stroke="#095679" stroke-width="3"/>
<g filter="url(#filter10_f_101_98)">
<path d="M363.5 370.5C357.92 366.842 355.223 364.446 347.5 362.5C348.818 387.645 347.073 397.03 342.5 411C327.53 458.935 317.19 476.104 298 503C305.63 507.216 309.36 510.434 317 516.5C324.44 508.612 328.375 503.67 335 494L335.398 493.395C341.636 483.912 345.255 478.412 351 467C362.934 442.431 366.516 430.368 369 411C369.728 403.185 370.443 402.171 370 386C369.197 380.812 369.303 378.181 363.5 370.5Z" fill="#C5F5F5"/>
</g>
<defs>
<filter id="filter0_f_101_98" x="162" y="654" width="172" height="69" filterUnits="userSpaceOnUse" color-interpolation-filters="sRGB">
<feFlood flood-opacity="0" result="BackgroundImageFix"/>
<feBlend mode="normal" in="SourceGraphic" in2="BackgroundImageFix" result="shape"/>
<feGaussianBlur stdDeviation="5" result="effect1_foregroundBlur_101_98"/>
</filter>
<filter id="filter1_f_101_98" x="186" y="566" width="112.5" height="68.0249" filterUnits="userSpaceOnUse" color-interpolation-filters="sRGB">
<feFlood flood-opacity="0" result="BackgroundImageFix"/>
<feBlend mode="normal" in="SourceGraphic" in2="BackgroundImageFix" result="shape"/>
<feGaussianBlur stdDeviation="2.5" result="effect1_foregroundBlur_101_98"/>
</filter>
<filter id="filter2_f_101_98" x="199" y="529.018" width="100" height="19.9817" filterUnits="userSpaceOnUse" color-interpolation-filters="sRGB">
<feFlood flood-opacity="0" result="BackgroundImageFix"/>
<feBlend mode="normal" in="SourceGraphic" in2="BackgroundImageFix" result="shape"/>
<feGaussianBlur stdDeviation="2" result="effect1_foregroundBlur_101_98"/>
</filter>
<filter id="filter3_f_101_98" x="270" y="539" width="36.7067" height="81.5" filterUnits="userSpaceOnUse" color-interpolation-filters="sRGB">
<feFlood flood-opacity="0" result="BackgroundImageFix"/>
<feBlend mode="normal" in="SourceGraphic" in2="BackgroundImageFix" result="shape"/>
<feGaussianBlur stdDeviation="1.5" result="effect1_foregroundBlur_101_98"/>
</filter>
<filter id="filter4_f_101_98" x="61.6824" y="377" width="71.3176" height="135" filterUnits="userSpaceOnUse" color-interpolation-filters="sRGB">
<feFlood flood-opacity="0" result="BackgroundImageFix"/>
<feBlend mode="normal" in="SourceGraphic" in2="BackgroundImageFix" result="shape"/>
<feGaussianBlur stdDeviation="2.5" result="effect1_foregroundBlur_101_98"/>
</filter>
<filter id="filter5_f_101_98" x="77" y="374" width="69.501" height="114" filterUnits="userSpaceOnUse" color-interpolation-filters="sRGB">
<feFlood flood-opacity="0" result="BackgroundImageFix"/>
<feBlend mode="normal" in="SourceGraphic" in2="BackgroundImageFix" result="shape"/>
<feGaussianBlur stdDeviation="2.5" result="effect1_foregroundBlur_101_98"/>
</filter>
<filter id="filter6_f_101_98" x="160.292" y="257" width="174.5" height="71.0039" filterUnits="userSpaceOnUse" color-interpolation-filters="sRGB">
<feFlood flood-opacity="0" result="BackgroundImageFix"/>
<feBlend mode="normal" in="SourceGraphic" in2="BackgroundImageFix" result="shape"/>
<feGaussianBlur stdDeviation="4" result="effect1_foregroundBlur_101_98"/>
</filter>
<filter id="filter7_f_101_98" x="339.5" y="343.5" width="136.415" height="110.183" filterUnits="userSpaceOnUse" color-interpolation-filters="sRGB">
<feFlood flood-opacity="0" result="BackgroundImageFix"/>
<feBlend mode="normal" in="SourceGraphic" in2="BackgroundImageFix" result="shape"/>
<feGaussianBlur stdDeviation="4" result="effect1_foregroundBlur_101_98"/>
</filter>
<filter id="filter8_f_101_98" x="355" y="337" width="82" height="118.5" filterUnits="userSpaceOnUse" color-interpolation-filters="sRGB">
<feFlood flood-opacity="0" result="BackgroundImageFix"/>
<feBlend mode="normal" in="SourceGraphic" in2="BackgroundImageFix" result="shape"/>
<feGaussianBlur stdDeviation="4" result="effect1_foregroundBlur_101_98"/>
</filter>
<filter id="filter9_f_101_98" x="132" y="354.849" width="232.5" height="49.1511" filterUnits="userSpaceOnUse" color-interpolation-filters="sRGB">
<feFlood flood-opacity="0" result="BackgroundImageFix"/>
<feBlend mode="normal" in="SourceGraphic" in2="BackgroundImageFix" result="shape"/>
<feGaussianBlur stdDeviation="2.5" result="effect1_foregroundBlur_101_98"/>
</filter>
<filter id="filter10_f_101_98" x="290" y="354.5" width="88.1364" height="170" filterUnits="userSpaceOnUse" color-interpolation-filters="sRGB">
<feFlood flood-opacity="0" result="BackgroundImageFix"/>
<feBlend mode="normal" in="SourceGraphic" in2="BackgroundImageFix" result="shape"/>
<feGaussianBlur stdDeviation="4" result="effect1_foregroundBlur_101_98"/>
</filter>
<linearGradient id="paint0_linear_101_98" x1="444" y1="327" x2="58" y2="55.5" gradientUnits="userSpaceOnUse">
<stop stop-color="#52A7C0"/>
<stop offset="1" stop-color="#0E5064"/>
</linearGradient>
<linearGradient id="paint1_linear_101_98" x1="454" y1="294.5" x2="50.5" y2="49" gradientUnits="userSpaceOnUse">
<stop offset="0.473958" stop-color="#83C1CE"/>
<stop offset="1" stop-color="#90C8D3"/>
</linearGradient>
</defs>
</svg>
