<svg width="1407" height="812" viewBox="0 0 1407 812" fill="none" xmlns="http://www.w3.org/2000/svg">
<g filter="url(#filter0_f_167_31)">
<ellipse cx="1122.25" cy="774.651" rx="114.492" ry="24.4928" fill="black" fill-opacity="0.12"/>
</g>
<path d="M1175.59 660.844C1176.64 690.64 1135.73 722.754 1119.25 723.33C1102.76 723.906 1057.72 694.792 1056.68 664.996C1055.64 635.199 1082.37 624.586 1115.76 623.42C1149.15 622.255 1174.55 631.047 1175.59 660.844Z" fill="#A0DDE8" stroke="#095679" stroke-width="6"/>
<g filter="url(#filter1_f_167_31)">
<path d="M1059.69 665.391C1061.71 694.945 1105.72 722.802 1119.18 721.332C1132.63 719.862 1151.83 703.805 1163.06 688.79C1141.37 703.014 1132.37 707.534 1113.5 702.024C1086.03 690.803 1078 681.543 1059.69 665.391Z" fill="#51A1B8"/>
</g>
<g filter="url(#filter2_f_167_31)">
<path d="M1115.33 625.455C1110.33 625.629 1089.34 626.362 1070.71 637.074C1105.23 632.479 1128.95 633.463 1162.71 635.785C1147.04 625.361 1120.32 625.28 1115.33 625.455Z" fill="#59A6B1"/>
</g>
<path d="M1145.82 624.872C1145.82 624.872 1149.14 648.263 1144.21 678.945C1139.28 709.627 1119.25 723.33 1119.25 723.33" stroke="#095679" stroke-width="3"/>
<g filter="url(#filter3_f_167_31)">
<path d="M1171.92 655.97C1171.36 645.239 1164.5 637.607 1157.11 632.98C1174.39 654.727 1162.24 683.653 1143.26 708.988C1156.78 697.981 1175.01 675.682 1171.92 655.97Z" fill="#C5F5F5"/>
</g>
<path d="M893.571 245.288C903.841 148.63 990.524 78.5982 1087.18 88.8672L1231.33 104.182C1327.99 114.451 1398.02 201.133 1387.75 297.791L1384.07 332.492C1375.84 409.928 1306.39 466.033 1228.96 457.806L1015.2 435.096C937.761 426.869 881.656 357.425 889.884 279.989L893.571 245.288Z" fill="url(#paint0_linear_167_31)" stroke="#095679" stroke-width="6"/>
<path d="M893.571 245.288C903.841 148.63 990.524 78.5982 1087.18 88.8672L1231.33 104.182C1327.99 114.451 1398.02 201.133 1387.75 297.791L1386.18 312.61C1377.95 390.046 1308.51 446.151 1231.07 437.924L1017.31 415.214C939.873 406.987 883.769 337.543 891.996 260.107L893.571 245.288Z" fill="url(#paint1_linear_167_31)" stroke="#095679" stroke-width="3"/>
<path fill-rule="evenodd" clip-rule="evenodd" d="M1052.93 122.893C990.211 117.335 934.864 163.67 929.306 226.384L926.135 262.166C920.576 324.881 966.911 380.227 1029.63 385.785L1033.95 386.169C1040.2 363.105 1082.44 348.314 1131.93 352.7C1181.42 357.085 1220.4 379.075 1222.49 402.878L1223.83 402.997C1286.55 408.555 1341.89 362.221 1347.45 299.506L1350.62 263.724C1356.18 201.009 1309.85 145.663 1247.13 140.105L1052.93 122.893Z" fill="#0F3035"/>
<path d="M929.306 226.384L927.314 226.208L929.306 226.384ZM1052.93 122.893L1053.1 120.901L1052.93 122.893ZM926.135 262.166L928.127 262.343L926.135 262.166ZM1033.95 386.169L1033.78 388.161L1035.45 388.309L1035.88 386.692L1033.95 386.169ZM1222.49 402.878L1220.5 403.053L1220.65 404.722L1222.32 404.87L1222.49 402.878ZM1223.83 402.997L1223.66 404.989L1223.83 402.997ZM1347.45 299.506L1345.46 299.329L1347.45 299.506ZM1350.62 263.724L1352.62 263.9L1350.62 263.724ZM1247.13 140.105L1246.96 142.097L1247.13 140.105ZM931.298 226.561C936.759 164.947 991.134 119.425 1052.75 124.886L1053.1 120.901C989.287 115.246 932.97 162.393 927.314 226.208L931.298 226.561ZM928.127 262.343L931.298 226.561L927.314 226.208L924.142 261.99L928.127 262.343ZM1029.8 383.793C968.187 378.332 922.666 323.957 928.127 262.343L924.142 261.99C918.487 325.805 965.634 382.122 1029.45 387.777L1029.8 383.793ZM1034.13 384.177L1029.8 383.793L1029.45 387.777L1033.78 388.161L1034.13 384.177ZM1035.88 386.692C1038.74 376.145 1050.04 366.999 1067.38 361.032C1084.59 355.107 1107.24 352.519 1131.75 354.692L1132.11 350.707C1107.14 348.495 1083.92 351.109 1066.08 357.249C1048.36 363.347 1035.41 373.129 1032.02 385.646L1035.88 386.692ZM1131.75 354.692C1156.27 356.865 1178.11 363.395 1194.01 372.255C1210.03 381.178 1219.54 392.168 1220.5 403.053L1224.48 402.703C1223.35 389.785 1212.33 377.879 1195.96 368.76C1179.47 359.578 1157.07 352.92 1132.11 350.707L1131.75 354.692ZM1224.01 401.005L1222.67 400.886L1222.32 404.87L1223.66 404.989L1224.01 401.005ZM1345.46 299.329C1340 360.944 1285.62 406.465 1224.01 401.005L1223.66 404.989C1287.47 410.645 1343.79 363.497 1349.44 299.682L1345.46 299.329ZM1348.63 263.547L1345.46 299.329L1349.44 299.682L1352.62 263.9L1348.63 263.547ZM1246.96 142.097C1308.57 147.558 1354.09 201.933 1348.63 263.547L1352.62 263.9C1358.27 200.086 1311.12 143.769 1247.31 138.113L1246.96 142.097ZM1052.75 124.886L1246.96 142.097L1247.31 138.113L1053.1 120.901L1052.75 124.886Z" fill="#095679"/>
<g filter="url(#filter4_f_167_31)">
<path d="M1207.29 404.647C1205.37 422.765 1169.95 418.273 1127.39 413.752C1084.83 409.23 1047.76 406.022 1049.69 387.904C1051.61 369.786 1090.64 354.554 1133.2 359.076C1175.76 363.597 1209.22 386.529 1207.29 404.647Z" fill="#1FD0BB"/>
</g>
<path d="M1031.48 253.354C1053.72 255.716 1073.67 239.606 1076.03 217.37C1078.39 195.134 1062.28 175.193 1040.04 172.83C1017.8 170.468 997.851 186.578 995.488 208.814C993.125 231.05 1009.24 250.991 1031.48 253.354Z" fill="#1FD0BB" stroke="#696969"/>
<rect x="-0.444373" y="-0.550024" width="82.994" height="85.9749" rx="10.5" transform="matrix(0.994404 0.105646 -0.105658 0.994403 1100.31 239.102)" fill="#6E3232" stroke="#696969"/>
<rect x="-0.444373" y="-0.550024" width="94.9931" height="43.9873" rx="10.5" transform="matrix(0.994404 0.105646 -0.105658 0.994403 984 254.894)" fill="#4F472E" stroke="#696969"/>
<rect x="-0.444373" y="-0.550024" width="94.9931" height="43.9873" rx="10.5" transform="matrix(0.994404 0.105646 -0.105658 0.994403 1203.13 265.105)" fill="#177B70" stroke="#696969"/>
<rect x="-0.444373" y="-0.550024" width="94.9931" height="18.9947" rx="9.49735" transform="matrix(0.994404 0.105646 -0.105658 0.994403 1205.77 240.253)" fill="#452C3B" stroke="#696969"/>
<rect x="-0.444373" y="-0.550024" width="94.9931" height="21.9938" rx="10.5" transform="matrix(0.994404 0.105646 -0.105658 0.994403 1208.73 212.418)" fill="#154D69" stroke="#696969"/>
<rect x="-0.444373" y="-0.550024" width="94.9931" height="32.9906" rx="10.5" transform="matrix(0.994404 0.105646 -0.105658 0.994403 1196.86 314.705)" fill="#5C4133" stroke="#696969"/>
<rect x="-0.444373" y="-0.550024" width="94.9931" height="18.9947" rx="9.49735" transform="matrix(0.994404 0.105646 -0.105658 0.994403 978.613 305.594)" fill="#095369" stroke="#696969"/>
<path d="M1030.3 221.55L1030.36 221.282C1030.93 218.445 1031.66 216.24 1032.55 214.667C1033.44 213.094 1034.5 211.886 1035.74 211.044C1036.98 210.202 1038.42 209.482 1040.04 208.883C1041.02 208.515 1041.93 208.034 1042.77 207.439C1043.61 206.829 1044.33 206.079 1044.92 205.188C1045.52 204.301 1045.93 203.269 1046.16 202.094C1046.44 200.635 1046.34 199.305 1045.86 198.102C1045.38 196.9 1044.62 195.899 1043.59 195.099C1042.55 194.299 1041.33 193.765 1039.94 193.497C1038.71 193.263 1037.49 193.291 1036.26 193.581C1035.04 193.87 1033.94 194.485 1032.97 195.426C1032 196.367 1031.29 197.704 1030.84 199.437L1025.21 198.36C1025.82 195.853 1026.89 193.813 1028.42 192.24C1029.97 190.671 1031.82 189.598 1033.97 189.022C1036.13 188.448 1038.41 188.392 1040.82 188.854C1043.44 189.356 1045.62 190.313 1047.36 191.725C1049.11 193.14 1050.33 194.857 1051.04 196.874C1051.77 198.895 1051.91 201.066 1051.46 203.388C1051.15 205.025 1050.61 206.457 1049.85 207.684C1049.11 208.915 1048.17 209.961 1047.03 210.823C1045.91 211.688 1044.61 212.397 1043.15 212.949C1041.68 213.517 1040.47 214.179 1039.51 214.936C1038.55 215.678 1037.77 216.632 1037.18 217.799C1036.58 218.965 1036.1 220.469 1035.71 222.308L1035.66 222.576L1030.3 221.55ZM1030.63 235.311C1029.53 235.1 1028.66 234.525 1028.02 233.585C1027.38 232.646 1027.17 231.625 1027.38 230.524C1027.59 229.423 1028.17 228.553 1029.11 227.916C1030.05 227.278 1031.07 227.065 1032.17 227.276C1033.27 227.487 1034.14 228.062 1034.78 229.002C1035.42 229.941 1035.63 230.962 1035.42 232.063C1035.28 232.792 1034.96 233.426 1034.47 233.965C1034 234.507 1033.42 234.905 1032.74 235.16C1032.08 235.404 1031.37 235.454 1030.63 235.311Z" fill="#0F3035"/>
<path d="M1348.32 247.806C1345.28 224.361 1334.9 206.195 1331.26 200.367C1336.44 213.198 1329.66 278.925 1319.89 307.117C1310.12 335.309 1302.06 343.749 1283.67 364.091C1270.1 379.112 1244.86 398.17 1240.22 399.186C1263.65 397.76 1276.5 392.862 1299.1 379.805C1310.38 371.518 1316.74 366.721 1329.22 351.84C1337.73 340.737 1341.89 333.791 1345.5 316.875C1346.1 315.142 1351.36 271.252 1348.32 247.806Z" fill="#9DDBE9" fill-opacity="0.28"/>
<path d="M926.943 271.904C926.943 271.904 922.146 307.587 956.551 343.412C956.551 343.412 956.09 305.161 981.768 271.697C1007.33 238.38 1050.4 209.206 1062.54 200.982L1062.7 200.874C1074.62 192.8 1139.04 163.745 1166.01 156.054C1192.97 148.362 1251.62 140.519 1251.62 140.519L1066.45 121.359C981.414 112.561 911.705 187.787 926.943 271.904Z" fill="#9DDBE9" fill-opacity="0.28"/>
<path d="M962.622 587.979C977.772 595.152 1015.16 575.21 1033.57 536.251C1051.98 497.292 1056.4 464.775 1033.68 454.021C1010.97 443.266 985.562 455.429 967.151 494.388C948.741 533.347 947.473 580.805 962.622 587.979Z" fill="#89C4D6"/>
<path d="M962.622 587.979C977.772 595.152 1015.16 575.21 1033.57 536.251C1051.98 497.292 1056.4 464.775 1033.68 454.021M962.622 587.979C947.473 580.805 948.741 533.347 967.151 494.388C985.562 455.429 1010.97 443.266 1033.68 454.021M962.622 587.979C962.622 587.979 960.592 541.671 981.79 507.266C1002.99 472.861 1033.68 454.021 1033.68 454.021" stroke="#095679" stroke-width="6"/>
<g filter="url(#filter5_f_167_31)">
<path d="M1021.35 550.96C1015.16 562.623 988.727 586.734 968.43 586.518C1005.75 579.376 1040.85 506.188 1036.78 453.625C1058.58 478.436 1035.86 531.341 1021.35 550.96Z" fill="#C5F5F5"/>
</g>
<g filter="url(#filter6_f_167_31)">
<path d="M963.671 511.255C955.777 530.273 955.777 535.273 955.777 549.56C973.542 531.43 978.651 516.583 1000.98 510.199C1016.54 507.171 1028.98 516.889 1037.94 519.34C1044.86 499.916 1048.96 484.542 1046.19 467.795C1036.46 472.74 1022.58 449.081 1005.99 454.773C985.735 460.071 981.986 472.273 975.486 480.773C970.842 488.221 966.522 501.644 963.671 511.255Z" fill="#4F9DB6"/>
</g>
<path d="M961.362 586.664C963.246 541.783 970.85 519.277 998.328 484.778" stroke="#095679" stroke-width="6"/>
<path d="M1223.08 523.923C1239.96 537.506 1275.51 521.257 1302.46 487.628C1329.42 454 1331.29 410.455 1320.69 402.143C1310.1 393.832 1273.87 403.458 1240.63 436.594C1207.38 469.731 1206.19 510.34 1223.08 523.923Z" fill="#89C4D6" stroke="#095679" stroke-width="6"/>
<g filter="url(#filter7_f_167_31)">
<path d="M1230.39 453.258C1218.93 470.153 1216.6 479.862 1215.57 496.121C1215.57 496.121 1216.76 480.593 1232.58 459.918C1248.4 439.242 1261.12 431.517 1283.93 417.665C1306.73 403.814 1307.62 403.554 1316.54 403.217C1307.34 401.954 1301.63 401.753 1281.57 410.53C1261.42 422.007 1249.11 428.622 1230.39 453.258Z" fill="#BAEDF0"/>
</g>
<g filter="url(#filter8_f_167_31)">
<path d="M1203.94 515.52C1190.61 519.791 1208.09 491.055 1198.61 498.859C1198.35 475.736 1239.45 439.286 1258.94 423.363C1292.74 412.531 1248.61 522.202 1292.71 495.997C1228.93 555.804 1233.86 499.11 1203.94 515.52Z" fill="#4F9DB6"/>
</g>
<path d="M1320.2 403.542C1320.2 403.542 1289.47 417.418 1259.49 452.463C1229.51 487.509 1221.28 519.192 1221.28 519.192" stroke="#095679" stroke-width="3"/>
<path d="M1000.6 481.09C999.203 463.307 1013.83 449.476 1031.67 449.476H1213.75C1229.21 449.476 1242.67 460.015 1243.22 475.465C1243.79 491.78 1242.13 514.099 1232.99 537.45C1214.99 583.437 1187 610.429 1187 610.429C1187 610.429 1164.5 590.934 1121.5 591.434C1078.5 591.934 1053.01 610.429 1053.01 610.429C1053.01 610.429 1025.01 583.437 1011.01 537.45C1004.69 516.681 1001.83 496.728 1000.6 481.09Z" fill="#9DDBE9" stroke="#095679" stroke-width="6"/>
<path d="M1168.5 449.476V492.963C1168.5 492.963 1181.5 500.461 1181.5 518.456C1181.5 536.45 1163 544.948 1163 544.948L1152.5 587.435" stroke="#095679" stroke-width="3"/>
<path d="M1031.01 580.437C1031.01 580.437 1047.01 564.442 1094.5 558.944C1142 553.445 1159 564.442 1159 564.442" stroke="#095679" stroke-width="3"/>
<g filter="url(#filter9_f_167_31)">
<path d="M1233.49 459.973C1227.91 456.316 1225.22 453.921 1217.49 451.975C1218.81 477.113 1217.07 486.495 1212.49 500.461C1197.53 548.382 1187.19 565.546 1168 592.434C1175.63 596.649 1179.36 599.866 1187 605.93C1194.44 598.044 1198.37 593.104 1205 583.437L1205.39 582.832C1211.63 573.352 1215.25 567.853 1220.99 556.445C1232.93 531.883 1236.51 519.823 1238.99 500.461C1239.72 492.648 1240.44 491.634 1239.99 475.468C1239.19 470.282 1239.3 467.651 1233.49 459.973Z" fill="#C5F5F5"/>
</g>
<g filter="url(#filter10_f_167_31)">
<path d="M1229.49 457.474C1229.49 467.937 1179.36 488.464 1120.62 488.464C1061.87 488.464 1007.01 475.994 1007.01 465.531C1010.43 446.586 1061.87 450.575 1120.62 450.575C1179.36 450.575 1212.49 444.977 1229.49 457.474Z" fill="#59A6B1"/>
</g>
<path d="M0 67C0 29.9969 29.9969 0 67 0H685C722.003 0 752 29.9969 752 67V207C752 244.003 722.003 274 685 274H67C29.9969 274 0 244.003 0 207V67Z" fill="#0F3035"/>
<path d="M59.6493 127.668L63.3573 123.78H72.2493L75.7413 127.668H59.6493ZM76.8933 126.084L73.0053 122.376V113.52L76.8933 109.992V126.084ZM62.7453 111.288C61.9053 110.616 61.0533 109.956 60.1893 109.308L62.7453 107.4H72.5733L75.0933 109.308L72.5733 111.288H62.7453ZM59.6133 91.092H75.7053L72.1413 94.98H63.3213L59.6133 91.092ZM58.4613 108.732V92.64L62.3493 96.132V105.06L58.4613 108.732ZM88.4423 127.668L92.1503 123.78H101.042L104.534 127.668H88.4423ZM87.3623 109.992L91.2503 113.736V122.556L87.3623 126.084V109.992ZM105.686 126.084L101.798 122.376V113.52L105.686 109.992V126.084ZM88.4063 91.092H104.498L100.934 94.98H92.1143L88.4063 91.092ZM87.2543 108.732V92.64L91.1423 96.132V105.06L87.2543 108.732ZM105.578 92.64V108.732L101.69 105.24V96.348L105.578 92.64ZM120.079 114.6V122.556L116.191 126.084V109.992L120.079 114.6ZM128.107 113.664L133.651 119.496L133.255 124.68C129.823 121.08 128.071 119.244 127.999 119.172C127.951 119.1 127.879 119.028 127.783 118.956C127.687 118.884 127.615 118.812 127.567 118.74L122.131 113.052L128.107 113.664ZM116.191 109.992L120.079 113.736V122.556L116.191 126.084V109.992ZM120.331 111.288C119.491 110.592 118.651 109.932 117.811 109.308L120.331 107.4H130.195L132.715 109.308L130.195 111.288H120.331ZM117.235 91.092H133.291L129.799 94.98H120.907L117.235 91.092ZM116.083 108.732V92.64L119.971 96.132V105.06L116.083 108.732ZM134.443 92.64V108.732L130.555 105.24V96.348L134.443 92.64ZM122.131 113.052H127.531C128.323 113.892 129.451 115.092 130.915 116.652C132.403 118.188 133.315 119.136 133.651 119.496L133.255 124.68C129.823 121.08 128.071 119.244 127.999 119.172C127.951 119.1 127.879 119.028 127.783 118.956C127.687 118.884 127.615 118.812 127.567 118.74L122.131 113.052ZM148.872 114.6V122.556L144.984 126.084V109.992L148.872 114.6ZM156.9 113.664L162.444 119.496L162.048 124.68C158.616 121.08 156.864 119.244 156.792 119.172C156.744 119.1 156.672 119.028 156.576 118.956C156.48 118.884 156.408 118.812 156.36 118.74L150.924 113.052L156.9 113.664ZM144.984 109.992L148.872 113.736V122.556L144.984 126.084V109.992ZM149.124 111.288C148.284 110.592 147.444 109.932 146.604 109.308L149.124 107.4H158.988L161.508 109.308L158.988 111.288H149.124ZM146.028 91.092H162.084L158.592 94.98H149.7L146.028 91.092ZM144.876 108.732V92.64L148.764 96.132V105.06L144.876 108.732ZM163.236 92.64V108.732L159.348 105.24V96.348L163.236 92.64ZM150.924 113.052H156.324C157.116 113.892 158.244 115.092 159.708 116.652C161.196 118.188 162.108 119.136 162.444 119.496L162.048 124.68C158.616 121.08 156.864 119.244 156.792 119.172C156.744 119.1 156.672 119.028 156.576 118.956C156.48 118.884 156.408 118.812 156.36 118.74L150.924 113.052ZM190.841 98.58L174.857 124.86V118.2L181.985 106.5L183.641 108.264V103.8L190.841 91.992V98.58ZM181.985 106.5L183.641 103.8V101.64L174.857 91.992V98.904L181.985 106.5ZM242.415 126.084L238.527 122.376V113.52L242.415 109.992V126.084ZM242.343 92.64V108.732L238.455 105.24V96.348L242.343 92.64ZM288.913 109.992L292.801 113.736V122.556L288.913 126.084V109.992ZM307.237 126.084L303.349 122.376V113.52L307.237 109.992V126.084ZM293.089 111.288C292.249 110.616 291.397 109.956 290.533 109.308L293.089 107.4H302.917L305.437 109.308L302.917 111.288H293.089ZM289.957 91.092H306.049L302.485 94.98H293.665L289.957 91.092ZM288.805 108.732V92.64L292.693 96.132V105.06L288.805 108.732ZM307.129 92.64V108.732L303.241 105.24V96.348L307.129 92.64ZM316.05 109.992L319.938 113.736V122.556L316.05 126.084V109.992ZM337.974 126.084L334.086 122.376V113.52L337.974 109.992V126.084ZM326.202 100.776L326.382 102.36L323.25 102.072L316.014 95.34L315.51 92.244L318.642 92.532L325.878 99.192L326.202 100.776ZM315.978 108.732V96.96L319.866 100.488V105.06L315.978 108.732ZM337.902 96.96V108.732L334.014 105.24V100.668L337.902 96.96ZM327.426 100.776L327.75 99.192L334.986 92.532L338.118 92.244L337.614 95.34L330.378 102.072L327.246 102.36L327.426 100.776ZM373.492 106.932V90.768L377.38 94.332V103.224L373.492 106.932ZM395.416 90.768V106.932L391.528 103.368V94.512L395.416 90.768ZM373.384 108.156L377.272 111.864V120.756L373.384 124.284V108.156ZM395.308 124.284L391.42 120.54V111.684L395.308 108.156V124.284ZM379.216 101.424V94.116L389.44 111.324V118.668L379.216 101.424ZM405.165 127.668L408.873 123.78H417.765L421.257 127.668H405.165ZM404.085 109.992L407.973 113.736V122.556L404.085 126.084V109.992ZM422.409 126.084L418.521 122.376V113.52L422.409 109.992V126.084ZM405.129 91.092H421.221L417.657 94.98H408.837L405.129 91.092ZM403.977 108.732V92.64L407.865 96.132V105.06L403.977 108.732ZM422.301 92.64V108.732L418.413 105.24V96.348L422.301 92.64ZM443.966 126.084L440.078 122.376V113.52L443.966 109.992V126.084ZM430.934 94.332C430.094 93.66 429.254 93.024 428.414 92.424L430.934 90.48H453.038L455.558 92.424L453.038 94.332H443.858V108.732L439.97 105.24V96.348L442.094 94.332H430.934ZM490.464 109.992L494.352 113.736V122.556L490.464 126.084V109.992ZM508.788 126.084L504.9 122.376V113.52L508.788 109.992V126.084ZM494.64 111.288C493.8 110.616 492.948 109.956 492.084 109.308L494.64 107.4H504.468L506.988 109.308L504.468 111.288H494.64ZM491.508 91.092H507.6L504.036 94.98H495.216L491.508 91.092ZM490.356 108.732V92.64L494.244 96.132V105.06L490.356 108.732ZM508.68 92.64V108.732L504.792 105.24V96.348L508.68 92.64ZM520.337 127.668L524.045 123.78H532.937L536.429 127.668H520.337ZM519.257 109.992L523.145 113.736V122.556L519.257 126.084V109.992ZM537.581 126.084L533.693 122.376V113.52L537.581 109.992V126.084ZM523.433 111.288C522.593 110.616 521.741 109.956 520.877 109.308L523.433 107.4H533.261L535.781 109.308L533.261 111.288H523.433ZM520.301 91.092H536.393L532.829 94.98H524.009L520.301 91.092ZM519.149 108.732V92.64L523.037 96.132V105.06L519.149 108.732ZM537.473 92.64V108.732L533.585 105.24V96.348L537.473 92.64ZM549.67 127.668L553.378 123.78H562.27L565.798 127.668H549.67ZM548.626 109.992L552.478 113.736V122.556L548.626 126.084V109.992ZM548.518 108.732V92.64L552.37 96.132V105.06L548.518 108.732ZM578.463 127.668L582.171 123.78H591.063L594.591 127.668H578.463ZM577.419 109.992L581.271 113.736V122.556L577.419 126.084V109.992ZM581.559 111.288C580.671 110.592 579.831 109.932 579.039 109.308L581.559 107.4H591.387L593.907 109.308L591.387 111.288H581.559ZM578.427 91.092H594.483L590.991 94.98H582.099L578.427 91.092ZM577.311 108.732V92.64L581.163 96.132V105.06L577.311 108.732ZM645.517 126.084L641.629 122.376V113.52L645.517 109.992V126.084ZM632.485 94.332C631.645 93.66 630.805 93.024 629.965 92.424L632.485 90.48H654.589L657.109 92.424L654.589 94.332H645.409V108.732L641.521 105.24V96.348L643.645 94.332H632.485ZM664.302 127.668L668.01 123.78H676.902L680.394 127.668H664.302ZM663.222 109.992L667.11 113.736V122.556L663.222 126.084V109.992ZM681.546 126.084L677.658 122.376V113.52L681.546 109.992V126.084ZM664.266 91.092H680.358L676.794 94.98H667.974L664.266 91.092ZM663.114 108.732V92.64L667.002 96.132V105.06L663.114 108.732ZM681.438 92.64V108.732L677.55 105.24V96.348L681.438 92.64ZM44.7489 155.992L48.6009 159.736V168.556L44.7489 172.084V155.992ZM48.9249 157.288C48.0369 156.592 47.1969 155.932 46.4049 155.308L48.9249 153.4H58.7529L61.2729 155.308L58.7529 157.288H48.9249ZM45.7569 137.092H61.8489L58.3569 140.98H49.4649L45.7569 137.092ZM44.7129 154.732V138.64L48.5649 142.132V151.06L44.7129 154.732ZM84.0538 172.084L80.1658 168.376V159.52L84.0538 155.992V172.084ZM83.9818 138.64V154.732L80.0938 151.24V142.348L83.9818 138.64ZM99.9588 152.932V136.768L103.847 140.332V149.224L99.9588 152.932ZM121.883 136.768V152.932L117.995 149.368V140.512L121.883 136.768ZM99.8508 154.156L103.739 157.864V166.756L99.8508 170.284V154.156ZM121.775 170.284L117.887 166.54V157.684L121.775 154.156V170.284ZM105.683 147.424V140.116L115.907 157.324V164.668L105.683 147.424ZM131.632 173.668L135.34 169.78H144.232L147.724 173.668H131.632ZM130.552 155.992L134.44 159.736V168.556L130.552 172.084V155.992ZM148.876 172.084L144.988 168.376V159.52L148.876 155.992V172.084ZM131.596 137.092H147.688L144.124 140.98H135.304L131.596 137.092ZM130.444 154.732V138.64L134.332 142.132V151.06L130.444 154.732ZM148.768 138.64V154.732L144.88 151.24V142.348L148.768 138.64ZM205.238 144.58L189.254 170.86V164.2L196.382 152.5L198.038 154.264V149.8L205.238 137.992V144.58ZM196.382 152.5L198.038 149.8V147.64L189.254 137.992V144.904L196.382 152.5ZM218.011 173.668L221.719 169.78H230.611L234.103 173.668H218.011ZM216.931 155.992L220.819 159.736V168.556L216.931 172.084V155.992ZM235.255 172.084L231.367 168.376V159.52L235.255 155.992V172.084ZM217.975 137.092H234.067L230.503 140.98H221.683L217.975 137.092ZM216.823 154.732V138.64L220.711 142.132V151.06L216.823 154.732ZM235.147 138.64V154.732L231.259 151.24V142.348L235.147 138.64ZM246.804 173.668L250.512 169.78H259.404L262.896 173.668H246.804ZM245.724 155.992L249.612 159.736V168.556L245.724 172.084V155.992ZM264.048 172.084L260.16 168.376V159.52L264.048 155.992V172.084ZM245.616 154.732V138.64L249.504 142.132V151.06L245.616 154.732ZM263.94 138.64V154.732L260.052 151.24V142.348L263.94 138.64ZM278.441 160.6V168.556L274.553 172.084V155.992L278.441 160.6ZM286.469 159.664L292.013 165.496L291.617 170.68C288.185 167.08 286.433 165.244 286.361 165.172C286.313 165.1 286.241 165.028 286.145 164.956C286.049 164.884 285.977 164.812 285.929 164.74L280.493 159.052L286.469 159.664ZM274.553 155.992L278.441 159.736V168.556L274.553 172.084V155.992ZM278.693 157.288C277.853 156.592 277.013 155.932 276.173 155.308L278.693 153.4H288.557L291.077 155.308L288.557 157.288H278.693ZM275.597 137.092H291.653L288.161 140.98H279.269L275.597 137.092ZM274.445 154.732V138.64L278.333 142.132V151.06L274.445 154.732ZM292.805 138.64V154.732L288.917 151.24V142.348L292.805 138.64ZM280.493 159.052H285.893C286.685 159.892 287.813 161.092 289.277 162.652C290.765 164.188 291.677 165.136 292.013 165.496L291.617 170.68C288.185 167.08 286.433 165.244 286.361 165.172C286.313 165.1 286.241 165.028 286.145 164.956C286.049 164.884 285.977 164.812 285.929 164.74L280.493 159.052ZM336.027 160.6V168.556L332.139 172.084V155.992L336.027 160.6ZM344.055 159.664L349.599 165.496L349.203 170.68C345.771 167.08 344.019 165.244 343.947 165.172C343.899 165.1 343.827 165.028 343.731 164.956C343.635 164.884 343.563 164.812 343.515 164.74L338.079 159.052L344.055 159.664ZM332.139 155.992L336.027 159.736V168.556L332.139 172.084V155.992ZM336.279 157.288C335.439 156.592 334.599 155.932 333.759 155.308L336.279 153.4H346.143L348.663 155.308L346.143 157.288H336.279ZM333.183 137.092H349.239L345.747 140.98H336.855L333.183 137.092ZM332.031 154.732V138.64L335.919 142.132V151.06L332.031 154.732ZM350.391 138.64V154.732L346.503 151.24V142.348L350.391 138.64ZM338.079 159.052H343.479C344.271 159.892 345.399 161.092 346.863 162.652C348.351 164.188 349.263 165.136 349.599 165.496L349.203 170.68C345.771 167.08 344.019 165.244 343.947 165.172C343.899 165.1 343.827 165.028 343.731 164.956C343.635 164.884 343.563 164.812 343.515 164.74L338.079 159.052ZM362.516 173.668L366.224 169.78H375.116L378.644 173.668H362.516ZM361.472 155.992L365.324 159.736V168.556L361.472 172.084V155.992ZM365.612 157.288C364.724 156.592 363.884 155.932 363.092 155.308L365.612 153.4H375.44L377.96 155.308L375.44 157.288H365.612ZM362.48 137.092H378.536L375.044 140.98H366.152L362.48 137.092ZM361.364 154.732V138.64L365.216 142.132V151.06L361.364 154.732ZM390.768 173.668L394.476 169.78H403.368L406.86 173.668H390.768ZM389.688 155.992L393.576 159.736V168.556L389.688 172.084V155.992ZM408.012 172.084L404.124 168.376V159.52L408.012 155.992V172.084ZM390.732 137.092H406.824L403.26 140.98H394.44L390.732 137.092ZM389.58 154.732V138.64L393.468 142.132V151.06L389.58 154.732ZM407.904 138.64V154.732L404.016 151.24V142.348L407.904 138.64ZM401.532 168.268L396.168 168.124L401.712 162.58C401.784 162.508 401.856 162.436 401.928 162.364C402 162.292 402.06 162.22 402.108 162.148C402.108 162.124 402.132 162.088 402.18 162.04C402.18 161.992 402.192 161.968 402.216 161.968L402.432 161.824L402.72 167.044L401.532 168.268ZM419.561 173.668L423.269 169.78H432.161L435.653 173.668H419.561ZM418.481 155.992L422.369 159.736V168.556L418.481 172.084V155.992ZM436.805 172.084L432.917 168.376V159.52L436.805 155.992V172.084ZM418.373 154.732V138.64L422.261 142.132V151.06L418.373 154.732ZM436.697 138.64V154.732L432.809 151.24V142.348L436.697 138.64ZM448.894 173.668L452.602 169.78H461.494L465.022 173.668H448.894ZM447.85 155.992L451.702 159.736V168.556L447.85 172.084V155.992ZM451.99 157.288C451.102 156.592 450.262 155.932 449.47 155.308L451.99 153.4H461.818L464.338 155.308L461.818 157.288H451.99ZM448.858 137.092H464.914L461.422 140.98H452.53L448.858 137.092ZM447.742 154.732V138.64L451.594 142.132V151.06L447.742 154.732ZM477.147 173.668L480.855 169.78H489.747L493.239 173.668H477.147ZM494.391 172.084L490.503 168.376V159.52L494.391 155.992V172.084ZM480.243 157.288C479.403 156.616 478.551 155.956 477.687 155.308L480.243 153.4H490.071L492.591 155.308L490.071 157.288H480.243ZM477.111 137.092H493.203L489.639 140.98H480.819L477.111 137.092ZM475.959 154.732V138.64L479.847 142.132V151.06L475.959 154.732ZM515.948 172.084L512.06 168.376V159.52L515.948 155.992V172.084ZM502.916 140.332C502.076 139.66 501.236 139.024 500.396 138.424L502.916 136.48H525.02L527.54 138.424L525.02 140.332H515.84V154.732L511.952 151.24V142.348L514.076 140.332H502.916ZM535.273 173.668L538.981 169.78H547.873L551.401 173.668H535.273ZM534.229 155.992L538.081 159.736V168.556L534.229 172.084V155.992ZM538.369 157.288C537.481 156.592 536.641 155.932 535.849 155.308L538.369 153.4H548.197L550.717 155.308L548.197 157.288H538.369ZM535.237 137.092H551.293L547.801 140.98H538.909L535.237 137.092ZM534.121 154.732V138.64L537.973 142.132V151.06L534.121 154.732ZM563.526 173.668L567.234 169.78H576.126L579.618 173.668H563.526ZM562.446 155.992L566.334 159.736V168.556L562.446 172.084V155.992ZM580.77 172.084L576.882 168.376V159.52L580.77 155.992V172.084ZM563.49 137.092H579.582L576.018 140.98H567.198L563.49 137.092ZM562.338 154.732V138.64L566.226 142.132V151.06L562.338 154.732ZM580.662 138.64V154.732L576.774 151.24V142.348L580.662 138.64ZM620.068 155.992L623.956 159.736V168.556L620.068 172.084V155.992ZM624.208 157.288C623.368 156.592 622.528 155.932 621.688 155.308L624.208 153.4H634.072L636.592 155.308L634.072 157.288H624.208ZM621.112 137.092H637.168L633.676 140.98H624.784L621.112 137.092ZM619.96 154.732V138.64L623.848 142.132V151.06L619.96 154.732ZM638.32 138.64V154.732L634.432 151.24V142.348L638.32 138.64ZM648.825 155.992L652.713 159.736V168.556L648.825 172.084V155.992ZM667.149 172.084L663.261 168.376V159.52L667.149 155.992V172.084ZM653.001 157.288C652.161 156.616 651.309 155.956 650.445 155.308L653.001 153.4H662.829L665.349 155.308L662.829 157.288H653.001ZM649.869 137.092H665.961L662.397 140.98H653.577L649.869 137.092ZM648.717 154.732V138.64L652.605 142.132V151.06L648.717 154.732ZM667.041 138.64V154.732L663.153 151.24V142.348L667.041 138.64ZM678.698 173.668L682.406 169.78H691.298L694.79 173.668H678.698ZM677.618 155.992L681.506 159.736V168.556L677.618 172.084V155.992ZM695.942 172.084L692.054 168.376V159.52L695.942 155.992V172.084ZM681.794 157.288C680.954 156.616 680.102 155.956 679.238 155.308L681.794 153.4H691.622L694.142 155.308L691.622 157.288H681.794ZM678.662 137.092H694.754L691.19 140.98H682.37L678.662 137.092ZM677.51 154.732V138.64L681.398 142.132V151.06L677.51 154.732ZM708.031 173.668L711.739 169.78H720.631L724.159 173.668H708.031ZM706.987 155.992L710.839 159.736V168.556L706.987 172.084V155.992ZM711.127 157.288C710.239 156.592 709.399 155.932 708.607 155.308L711.127 153.4H720.955L723.475 155.308L720.955 157.288H711.127ZM707.995 137.092H724.051L720.559 140.98H711.667L707.995 137.092ZM706.879 154.732V138.64L710.731 142.132V151.06L706.879 154.732Z" fill="#9DDBE9"/>
<path d="M805 176L747.25 214.971V137.029L805 176Z" fill="#0F3035"/>
<defs>
<filter id="filter0_f_167_31" x="995.754" y="738.158" width="252.983" height="72.9856" filterUnits="userSpaceOnUse" color-interpolation-filters="sRGB">
<feFlood flood-opacity="0" result="BackgroundImageFix"/>
<feBlend mode="normal" in="SourceGraphic" in2="BackgroundImageFix" result="shape"/>
<feGaussianBlur stdDeviation="6" result="effect1_foregroundBlur_167_31"/>
</filter>
<filter id="filter1_f_167_31" x="1054.69" y="660.391" width="113.372" height="65.9972" filterUnits="userSpaceOnUse" color-interpolation-filters="sRGB">
<feFlood flood-opacity="0" result="BackgroundImageFix"/>
<feBlend mode="normal" in="SourceGraphic" in2="BackgroundImageFix" result="shape"/>
<feGaussianBlur stdDeviation="2.5" result="effect1_foregroundBlur_167_31"/>
</filter>
<filter id="filter2_f_167_31" x="1066.71" y="621.42" width="100.004" height="19.6539" filterUnits="userSpaceOnUse" color-interpolation-filters="sRGB">
<feFlood flood-opacity="0" result="BackgroundImageFix"/>
<feBlend mode="normal" in="SourceGraphic" in2="BackgroundImageFix" result="shape"/>
<feGaussianBlur stdDeviation="2" result="effect1_foregroundBlur_167_31"/>
</filter>
<filter id="filter3_f_167_31" x="1140.26" y="629.98" width="35.0109" height="82.0074" filterUnits="userSpaceOnUse" color-interpolation-filters="sRGB">
<feFlood flood-opacity="0" result="BackgroundImageFix"/>
<feBlend mode="normal" in="SourceGraphic" in2="BackgroundImageFix" result="shape"/>
<feGaussianBlur stdDeviation="1.5" result="effect1_foregroundBlur_167_31"/>
</filter>
<filter id="filter4_f_167_31" x="1041.62" y="350.272" width="173.752" height="75.5087" filterUnits="userSpaceOnUse" color-interpolation-filters="sRGB">
<feFlood flood-opacity="0" result="BackgroundImageFix"/>
<feBlend mode="normal" in="SourceGraphic" in2="BackgroundImageFix" result="shape"/>
<feGaussianBlur stdDeviation="4" result="effect1_foregroundBlur_167_31"/>
</filter>
<filter id="filter5_f_167_31" x="960.43" y="445.625" width="93.3723" height="148.894" filterUnits="userSpaceOnUse" color-interpolation-filters="sRGB">
<feFlood flood-opacity="0" result="BackgroundImageFix"/>
<feBlend mode="normal" in="SourceGraphic" in2="BackgroundImageFix" result="shape"/>
<feGaussianBlur stdDeviation="4" result="effect1_foregroundBlur_167_31"/>
</filter>
<filter id="filter6_f_167_31" x="947.777" y="445.883" width="107.29" height="111.677" filterUnits="userSpaceOnUse" color-interpolation-filters="sRGB">
<feFlood flood-opacity="0" result="BackgroundImageFix"/>
<feBlend mode="normal" in="SourceGraphic" in2="BackgroundImageFix" result="shape"/>
<feGaussianBlur stdDeviation="4" result="effect1_foregroundBlur_167_31"/>
</filter>
<filter id="filter7_f_167_31" x="1210.57" y="397.579" width="110.971" height="103.542" filterUnits="userSpaceOnUse" color-interpolation-filters="sRGB">
<feFlood flood-opacity="0" result="BackgroundImageFix"/>
<feBlend mode="normal" in="SourceGraphic" in2="BackgroundImageFix" result="shape"/>
<feGaussianBlur stdDeviation="2.5" result="effect1_foregroundBlur_167_31"/>
</filter>
<filter id="filter8_f_167_31" x="1193.6" y="417.608" width="104.11" height="111.535" filterUnits="userSpaceOnUse" color-interpolation-filters="sRGB">
<feFlood flood-opacity="0" result="BackgroundImageFix"/>
<feBlend mode="normal" in="SourceGraphic" in2="BackgroundImageFix" result="shape"/>
<feGaussianBlur stdDeviation="2.5" result="effect1_foregroundBlur_167_31"/>
</filter>
<filter id="filter9_f_167_31" x="1160" y="443.975" width="88.1311" height="169.955" filterUnits="userSpaceOnUse" color-interpolation-filters="sRGB">
<feFlood flood-opacity="0" result="BackgroundImageFix"/>
<feBlend mode="normal" in="SourceGraphic" in2="BackgroundImageFix" result="shape"/>
<feGaussianBlur stdDeviation="4" result="effect1_foregroundBlur_167_31"/>
</filter>
<filter id="filter10_f_167_31" x="1002.01" y="444.325" width="232.484" height="49.1395" filterUnits="userSpaceOnUse" color-interpolation-filters="sRGB">
<feFlood flood-opacity="0" result="BackgroundImageFix"/>
<feBlend mode="normal" in="SourceGraphic" in2="BackgroundImageFix" result="shape"/>
<feGaussianBlur stdDeviation="2.5" result="effect1_foregroundBlur_167_31"/>
</filter>
<linearGradient id="paint0_linear_167_31" x1="1316.44" y1="438.952" x2="961.375" y2="128.199" gradientUnits="userSpaceOnUse">
<stop stop-color="#52A7C0"/>
<stop offset="1" stop-color="#0E5064"/>
</linearGradient>
<linearGradient id="paint1_linear_167_31" x1="1329.82" y1="407.699" x2="954.596" y2="120.945" gradientUnits="userSpaceOnUse">
<stop offset="0.473958" stop-color="#83C1CE"/>
<stop offset="1" stop-color="#90C8D3"/>
</linearGradient>
</defs>
</svg>
